# File created by Blade
# Date/Time:  Thu Jan 22 16:36:26 2015
# Frame Rate: 120.000 fps
#------------------------------------------------------
:FULLY-SPECIFIED
:DEGREES
3982
root 2.132278 24.240589 21.500447 -5.960017 -7.607238 -7.216282
RightUpLeg -55.668329 4.203748 4.388626
RightLeg 97.864101 -0.000000 -0.000000
RightFoot -31.459335 3.607498 18.227950
RightToeBase -355.794134 -0.000000 -0.000000
LeftUpLeg -14.649142 6.970830 13.729106
LeftLeg 112.560160 -0.000000 -0.000000
LeftFoot -17.956146 -6.667168 -16.748370
LeftToeBase -48.545363 -0.000000 0.000000
Spine 31.581840 -6.866448 11.392405
RightShoulder 10.725575 -5.279444 -21.257327
RightArm 36.343241 -13.707454 52.578602
RightForeArm 16.662493 -0.000000 60.064322
RightHand 11.381675 -0.000000 -13.606262
RightHandThumb1 -24.326973 -0.000000 -32.862282
LeftShoulder -9.189784 24.393394 13.686466
LeftArm 52.067858 21.865450 -75.040472
LeftForeArm 23.005947 -0.000000 26.550017
LeftHand -29.610345 -0.000000 15.667626
LeftHandThumb1 -26.253704 0.000000 33.147579
Head -34.255322 11.843088 0.087397
3983
root 2.092967 24.457941 21.359592 -5.810995 -7.551686 -7.143031
RightUpLeg -55.343353 4.278481 4.429662
RightLeg 96.644160 -0.000000 -0.000000
RightFoot -31.326740 3.285291 18.186351
RightToeBase -355.351285 -0.000000 -0.000000
LeftUpLeg -14.811623 6.936725 13.664436
LeftLeg 111.678775 -0.000000 -0.000000
LeftFoot -18.151836 -6.804746 -16.755028
LeftToeBase -48.896762 -0.000000 0.000000
Spine 31.496681 -6.666927 11.244503
RightShoulder 10.740270 -5.346758 -20.940254
RightArm 35.913397 -14.389086 53.539178
RightForeArm 18.011639 -0.000000 59.160625
RightHand 11.274556 -0.000000 -13.514078
RightHandThumb1 -24.326973 -0.000000 -32.862282
LeftShoulder -9.234231 24.541559 14.067013
LeftArm 52.966711 22.884396 -73.845006
LeftForeArm 18.314208 -0.000000 27.701232
LeftHand -31.932551 -0.000000 20.802610
LeftHandThumb1 -26.253704 0.000000 33.147579
Head -34.292498 11.754275 0.036211
3984
root 2.059406 24.677737 21.220988 -5.669950 -7.456552 -6.998411
RightUpLeg -54.996425 4.297635 4.406054
RightLeg 95.408204 -0.000000 -0.000000
RightFoot -31.261299 2.955958 18.232784
RightToeBase -354.816620 -0.000000 -0.000000
LeftUpLeg -14.979041 6.862857 13.488872
LeftLeg 110.766702 -0.000000 -0.000000
LeftFoot -18.322724 -6.863093 -16.771795
LeftToeBase -49.102140 -0.000000 0.000000
Spine 31.397285 -6.463326 11.010050
RightShoulder 10.691079 -5.459848 -20.623009
RightArm 35.454411 -15.001951 54.619319
RightForeArm 19.180498 -0.000000 58.336020
RightHand 11.181033 -0.000000 -13.357067
RightHandThumb1 -24.326973 -0.000000 -32.862282
LeftShoulder -9.327206 24.626139 14.373749
LeftArm 53.679370 23.872727 -72.539899
LeftForeArm 14.404619 0.000000 29.349807
LeftHand -33.467516 0.000000 25.192171
LeftHandThumb1 -26.253704 0.000000 33.147579
Head -34.336382 11.642739 0.016479
3985
root 2.032818 24.903344 21.085999 -5.559071 -7.277434 -6.926692
RightUpLeg -54.569966 4.197699 4.424296
RightLeg 94.122530 -0.000000 -0.000000
RightFoot -31.194500 2.668883 18.234334
RightToeBase -354.201403 -0.000000 -0.000000
LeftUpLeg -15.124427 6.669379 13.317864
LeftLeg 109.831028 -0.000000 -0.000000
LeftFoot -18.542695 -6.734214 -16.658743
LeftToeBase -49.697491 -0.000000 0.000000
Spine 31.318258 -6.341846 10.944883
RightShoulder 10.605331 -5.612925 -20.381728
RightArm 34.865203 -15.562979 55.645912
RightForeArm 20.206772 -0.000000 57.786492
RightHand 11.068713 -0.000000 -13.268076
RightHandThumb1 -24.326973 -0.000000 -32.862282
LeftShoulder -9.439206 24.775185 14.500054
LeftArm 54.361271 24.749565 -71.012893
LeftForeArm 11.135318 -0.000000 31.465116
LeftHand -33.940312 -0.000000 27.677271
LeftHandThumb1 -26.253704 0.000000 33.147579
Head -34.370823 11.437145 -0.163619
3986
root 2.008319 25.132269 20.953242 -5.471486 -7.155177 -6.838218
RightUpLeg -54.121250 4.168864 4.434379
RightLeg 92.830471 -0.000000 -0.000000
RightFoot -31.060647 2.302619 18.230033
RightToeBase -353.741166 -0.000000 -0.000000
LeftUpLeg -15.198038 6.533678 13.137086
LeftLeg 108.861431 -0.000000 -0.000000
LeftFoot -18.794221 -6.606424 -16.548757
LeftToeBase -50.406463 -0.000000 0.000000
Spine 31.257801 -6.109660 10.881943
RightShoulder 10.466744 -5.844283 -20.123854
RightArm 34.237434 -16.081982 56.614842
RightForeArm 21.201484 -0.000000 57.410896
RightHand 10.867007 0.000000 -13.305811
RightHandThumb1 -24.326973 -0.000000 -32.862282
LeftShoulder -9.516534 24.857284 14.543348
LeftArm 54.718356 25.440964 -69.549497
LeftForeArm 9.234298 -0.000000 34.043318
LeftHand -34.014923 -0.000000 28.379199
LeftHandThumb1 -26.253704 0.000000 33.147579
Head -34.375021 11.235897 -0.313805
3987
root 1.987040 25.366562 20.826120 -5.427146 -7.027919 -6.778266
RightUpLeg -53.579081 4.054134 4.475197
RightLeg 91.474871 -0.000000 -0.000000
RightFoot -30.955011 2.073674 18.219899
RightToeBase -353.127061 -0.000000 -0.000000
LeftUpLeg -15.202411 6.377668 12.961028
LeftLeg 107.860387 -0.000000 -0.000000
LeftFoot -19.042847 -6.518588 -16.574092
LeftToeBase -49.897734 -0.000000 0.000000
Spine 31.237311 -5.881455 10.886514
RightShoulder 10.303180 -6.194498 -19.894453
RightArm 33.639196 -16.514516 57.486354
RightForeArm 21.902030 -0.000000 57.181042
RightHand 10.643950 -0.000000 -13.481154
RightHandThumb1 -24.326973 -0.000000 -32.862282
LeftShoulder -9.593805 24.980400 14.462471
LeftArm 54.811313 25.854127 -68.328069
LeftForeArm 8.192806 -0.000000 36.943952
LeftHand -33.124227 -0.000000 26.769411
LeftHandThumb1 -26.253704 0.000000 33.147579
Head -34.365692 11.036839 -0.540414
3988
root 1.953604 25.597453 20.697248 -5.352137 -7.010451 -6.712988
RightUpLeg -53.094469 4.143360 4.525009
RightLeg 90.146297 -0.000000 -0.000000
RightFoot -30.792523 1.761682 18.261032
RightToeBase -352.531631 -0.000000 -0.000000
LeftUpLeg -15.180989 6.360616 12.842294
LeftLeg 106.831317 -0.000000 -0.000000
LeftFoot -19.279708 -6.363903 -16.494778
LeftToeBase -50.073070 -0.000000 0.000000
Spine 31.179166 -5.486998 10.852992
RightShoulder 10.100319 -6.724323 -19.615649
RightArm 33.126833 -16.801028 58.360032
RightForeArm 22.460315 -0.000000 57.044384
RightHand 10.466391 -0.000000 -13.461206
RightHandThumb1 -24.326973 -0.000000 -32.862282
LeftShoulder -9.730111 25.234452 14.337084
LeftArm 54.834791 26.068359 -67.249149
LeftForeArm 8.402224 -0.000000 39.941775
LeftHand -32.002338 -0.000000 23.491931
LeftHandThumb1 -26.253704 0.000000 33.147579
Head -34.298167 10.849731 -0.660544
3989
root 1.959667 25.832452 20.545928 -5.153127 -6.608690 -6.657433
RightUpLeg -52.754972 3.822868 4.459905
RightLeg 88.776857 -0.000000 -0.000000
RightFoot -30.545051 1.496436 18.356669
RightToeBase -351.961903 -0.000000 -0.000000
LeftUpLeg -15.506545 5.961105 12.496016
LeftLeg 105.880493 -0.000000 -0.000000
LeftFoot -19.580155 -6.047322 -16.503544
LeftToeBase -49.958029 -0.000000 0.000000
Spine 30.949661 -5.486030 10.935840
RightShoulder 9.823976 -7.339987 -19.448337
RightArm 32.759997 -17.155833 58.890471
RightForeArm 23.061013 -0.000000 56.981402
RightHand 10.443714 -0.000000 -13.754034
RightHandThumb1 -24.326973 -0.000000 -32.862282
LeftShoulder -9.961279 25.538411 13.977615
LeftArm 54.883146 26.095222 -66.299388
LeftForeArm 9.069581 -0.000000 42.855053
LeftHand -29.547505 -0.000000 18.304072
LeftHandThumb1 -26.253704 0.000000 33.147579
Head -34.224006 10.647598 -0.919450
3990
root 1.953171 26.072249 20.409854 -5.038577 -6.340294 -6.610257
RightUpLeg -52.265927 3.617524 4.433083
RightLeg 87.369693 -0.000000 -0.000000
RightFoot -30.321977 1.259606 18.313345
RightToeBase -351.452704 -0.000000 -0.000000
LeftUpLeg -15.611228 5.696394 12.240021
LeftLeg 104.839740 -0.000000 -0.000000
LeftFoot -19.944787 -5.725213 -16.500198
LeftToeBase -49.789406 -0.000000 0.000000
Spine 30.802877 -5.313461 10.992742
RightShoulder 9.489853 -7.997317 -19.189455
RightArm 32.357317 -17.441267 59.477188
RightForeArm 23.428240 -0.000000 56.938597
RightHand 10.453005 -0.000000 -14.024742
RightHandThumb1 -24.326973 -0.000000 -32.862282
LeftShoulder -10.112716 25.776327 13.680262
LeftArm 54.639196 25.961312 -65.758040
LeftForeArm 10.007684 -0.000000 45.728312
LeftHand -26.395962 0.000000 12.617242
LeftHandThumb1 -26.253704 0.000000 33.147579
Head -34.113866 10.442254 -1.038513
3991
root 1.940961 26.318137 20.279658 -4.989534 -6.093654 -6.565167
RightUpLeg -51.688948 3.460905 4.414812
RightLeg 85.951460 -0.000000 -0.000000
RightFoot -30.035088 0.958887 18.281941
RightToeBase -351.142125 -0.000000 -0.000000
LeftUpLeg -15.582166 5.448346 12.002123
LeftLeg 103.719714 -0.000000 -0.000000
LeftFoot -20.236040 -5.377675 -16.429900
LeftToeBase -49.874525 -0.000000 0.000000
Spine 30.728803 -5.110210 11.021894
RightShoulder 9.103983 -8.688209 -18.901602
RightArm 32.000314 -17.639828 60.141933
RightForeArm 23.523323 -0.000000 56.805361
RightHand 10.593255 -0.000000 -14.219671
RightHandThumb1 -24.326973 -0.000000 -32.862282
LeftShoulder -10.347134 26.000467 13.307314
LeftArm 54.438757 25.802850 -65.248239
LeftForeArm 11.220565 -0.000000 48.373549
LeftHand -22.411221 -0.000000 6.985053
LeftHandThumb1 -26.253704 0.000000 33.147579
Head -33.998433 10.261802 -1.077829
3992
root 1.928991 26.559674 20.138137 -4.813452 -5.851673 -6.428369
RightUpLeg -51.281985 3.343069 4.293239
RightLeg 84.529958 -0.000000 -0.000000
RightFoot -29.787867 0.761791 18.331333
RightToeBase -350.504828 -0.000000 -0.000000
LeftUpLeg -15.699893 5.185545 11.634943
LeftLeg 102.585530 -0.000000 -0.000000
LeftFoot -20.510841 -5.167241 -16.689842
LeftToeBase -49.822443 -0.000000 0.000000
Spine 30.473097 -4.824346 10.902555
RightShoulder 8.714908 -9.352710 -18.517236
RightArm 31.583539 -17.911954 60.743383
RightForeArm 23.562847 0.000000 56.688552
RightHand 10.755502 -0.000000 -14.635150
RightHandThumb1 -24.326973 -0.000000 -32.862282
LeftShoulder -10.580860 26.252987 12.956929
LeftArm 54.220213 25.634836 -64.822688
LeftForeArm 12.600950 0.000000 51.013467
LeftHand -19.067401 0.000000 2.061034
LeftHandThumb1 -26.253704 0.000000 33.147579
Head -33.785093 10.134535 -0.952517
